<svg width="25" height="24" viewBox="0 0 25 24" fill="none" xmlns="http://www.w3.org/2000/svg">
<g clip-path="url(#clip0_3_26)">
<path d="M22.9442 6.42C22.8254 5.94541 22.5835 5.51057 22.2429 5.15941C21.9022 4.80824 21.475 4.55318 21.0042 4.42C19.2842 4 12.4042 4 12.4042 4C12.4042 4 5.5242 4 3.8042 4.46C3.33344 4.59318 2.90617 4.84824 2.56554 5.19941C2.22491 5.55057 1.98299 5.98541 1.8642 6.46C1.54941 8.20556 1.39543 9.97631 1.4042 11.75C1.39298 13.537 1.54696 15.3213 1.8642 17.08C1.99516 17.5398 2.2425 17.9581 2.58234 18.2945C2.92218 18.6308 3.34302 18.8738 3.8042 19C5.5242 19.46 12.4042 19.46 12.4042 19.46C12.4042 19.46 19.2842 19.46 21.0042 19C21.475 18.8668 21.9022 18.6118 22.2429 18.2606C22.5835 17.9094 22.8254 17.4746 22.9442 17C23.2566 15.2676 23.4105 13.5103 23.4042 11.75C23.4154 9.96295 23.2614 8.1787 22.9442 6.42V6.42Z" stroke="white" stroke-linecap="round" stroke-linejoin="round"/>
<path d="M10.1542 15.02L15.9042 11.75L10.1542 8.48001V15.02Z" stroke="white" stroke-linecap="round" stroke-linejoin="round"/>
</g>
<defs>
<clipPath id="clip0_3_26">
<rect width="24" height="24" fill="white" transform="translate(0.404175)"/>
</clipPath>
</defs>
</svg>
